<svg width="323" height="169" viewBox="0 0 323 169" fill="none" xmlns="http://www.w3.org/2000/svg">
<path d="M14.7726 155.499L7.80113 148.195C3.75661 143.957 1.5 138.324 1.5 132.466V30.1496C1.5 23.9236 4.04809 17.9689 8.55176 13.6701L14.6994 7.80211C18.9373 3.75699 24.5707 1.5 30.4292 1.5H292.309C298.393 1.5 304.224 3.93363 308.503 8.25858L313.93 13.7435C318.15 18.0087 320.517 23.7665 320.517 29.7665V86.3574C320.517 91.827 318.359 97.0759 314.512 100.964C310.611 104.907 305.295 107.125 299.749 107.125H276.683C264.101 107.125 253.902 117.325 253.902 129.907V140.503C253.902 146.503 251.535 152.261 247.315 156.526L243.806 160.073C239.405 164.521 233.369 166.963 227.115 166.826L30.7566 162.547C24.7038 162.415 18.9525 159.879 14.7726 155.499Z" fill="#000000" stroke="#3B4B41" stroke-opacity="0.82" stroke-width="3"/>
</svg>
